<?xml version="1.0" encoding="UTF-8" standalone="no"?>
<!-- Created with Inkscape (http://www.inkscape.org/) -->

<svg
   xmlns:dc="http://purl.org/dc/elements/1.1/"
   xmlns:cc="http://creativecommons.org/ns#"
   xmlns:rdf="http://www.w3.org/1999/02/22-rdf-syntax-ns#"
   xmlns:svg="http://www.w3.org/2000/svg"
   xmlns="http://www.w3.org/2000/svg"
   xmlns:sodipodi="http://sodipodi.sourceforge.net/DTD/sodipodi-0.dtd"
   xmlns:inkscape="http://www.inkscape.org/namespaces/inkscape"
   width="744.09448819"
   height="1052.3622047"
   id="svg2"
   version="1.1"
   inkscape:version="0.48.4 r9939"
   sodipodi:docname="round logo vector.svg">
  <defs
     id="defs4">
    <clipPath
       id="clipPath3479"
       clipPathUnits="userSpaceOnUse">
      <path
         id="path3481"
         d="M 0,500 500,500 500,0 0,0 0,500 z" />
    </clipPath>
  </defs>
  <sodipodi:namedview
     id="base"
     pagecolor="#ffffff"
     bordercolor="#666666"
     borderopacity="1.0"
     inkscape:pageopacity="0.0"
     inkscape:pageshadow="2"
     inkscape:zoom="0.5"
     inkscape:cx="372.04724"
     inkscape:cy="526.18109"
     inkscape:document-units="px"
     inkscape:current-layer="g3475"
     showgrid="false"
     inkscape:window-width="1215"
     inkscape:window-height="776"
     inkscape:window-x="65"
     inkscape:window-y="24"
     inkscape:window-maximized="1" />
  <metadata
     id="metadata7">
    <rdf:RDF>
      <cc:Work
         rdf:about="">
        <dc:format>image/svg+xml</dc:format>
        <dc:type
           rdf:resource="http://purl.org/dc/dcmitype/StillImage" />
      </cc:Work>
    </rdf:RDF>
  </metadata>
  <g
     inkscape:label="Layer 1"
     inkscape:groupmode="layer"
     id="layer1">
    <g
       transform="matrix(1.25,0,0,-1.25,46.947003,881.60554)"
       inkscape:label="round logo vector"
       id="g3473">
      <g
         id="g3475">
        <g
           clip-path="url(#clipPath3479)"
           id="g3477"
           transform="translate(12.8,158.4)">
          <g
             id="g3561">
            <g
               id="g3483"
               transform="translate(-0.001,250.0029)">
              <path
                 inkscape:connector-curvature="0"
                 d="M 0,0 C 0,138.068 111.93,249.997 250,249.997 388.07,249.997 500.002,138.068 500.002,0 500.002,-138.071 388.07,-250.003 250,-250.003 111.93,-250.003 0,-138.071 0,0"
                 style="fill:#f1472c;fill-opacity:1;fill-rule:nonzero;stroke:none"
                 id="path3485" />
            </g>
            <g
               id="g3487"
               transform="translate(96.7705,352.7588)">
              <path
                 inkscape:connector-curvature="0"
                 d="m 0,0 42.652,0 0,-15.32 -26.283,0 0,-27.782 18.927,0 0,-15.321 -18.927,0 0,-31.686 26.283,0 0,-15.926 -42.652,0 L 0,0 z"
                 style="fill:#ffffff;fill-opacity:1;fill-rule:nonzero;stroke:none"
                 id="path3489" />
            </g>
            <g
               id="g3491"
               transform="translate(176.5469,262.334)">
              <path
                 inkscape:connector-curvature="0"
                 d="m 0,0 c 6.166,0 8.562,3.913 8.562,11.124 l 0,51.063 c 0,8.713 -4.06,12.618 -13.071,12.618 l -3.747,0 L -8.256,0 0,0 z m -24.477,90.425 23.289,0 c 18.158,0 26.428,-9.46 26.428,-29.139 l 0,-47.306 c 0,-20.273 -7.509,-29.59 -25.682,-29.59 l -24.035,0 0,106.035 z"
                 style="fill:#ffffff;fill-opacity:1;fill-rule:nonzero;stroke:none"
                 id="path3493" />
            </g>
            <g
               id="g3495"
               transform="translate(214.7363,328.2754)">
              <path
                 inkscape:connector-curvature="0"
                 d="m 0,0 c 0,16.526 9.465,26.739 25.678,26.739 15.329,0 23.585,-9.17 23.585,-27.181 l 0,-9.769 -15.765,0 0,11.263 c 0,7.363 -2.861,10.965 -8.414,10.965 -5.563,0 -8.418,-3.602 -8.418,-10.965 l 0,-59.172 c 0,-7.36 2.855,-11.123 8.418,-11.123 5.553,0 8.414,3.763 8.414,11.123 l 0,16.517 -9.918,0 0,13.519 25.683,0 0,-53.468 -7.814,0 -3.145,7.364 C 34.696,-80.805 29.736,-83.802 22.528,-83.802 7.962,-83.802 0,-73.586 0,-54.364 L 0,0 z"
                 style="fill:#ffffff;fill-opacity:1;fill-rule:nonzero;stroke:none"
                 id="path3497" />
            </g>
            <g
               id="g3499"
               transform="translate(279.1982,352.7588)">
              <path
                 inkscape:connector-curvature="0"
                 d="m 0,0 42.657,0 0,-15.32 -26.272,0 0,-27.782 18.912,0 0,-15.321 -18.912,0 0,-31.686 26.272,0 0,-15.926 -42.657,0 L 0,0 z"
                 style="fill:#ffffff;fill-opacity:1;fill-rule:nonzero;stroke:none"
                 id="path3501" />
            </g>
            <g
               id="g3503"
               transform="translate(111.7959,179.2832)">
              <path
                 inkscape:connector-curvature="0"
                 d="m 0,0 6.463,0 c 7.964,0 10.062,4.36 10.062,16.082 0,11.261 -2.702,14.71 -10.666,14.71 L 0,30.792 0,0 z m 0,-59.92 -16.36,0 0,106.032 24.026,0 c 17.728,0 25.531,-8.857 25.531,-30.64 0,-12.612 -2.698,-20.722 -10.352,-26.132 l 12.008,-49.26 -16.969,0 -10.064,44.605 -7.82,0 0,-44.605 z"
                 style="fill:#ffffff;fill-opacity:1;fill-rule:nonzero;stroke:none"
                 id="path3505" />
            </g>
            <g
               id="g3507"
               transform="translate(164.5605,225.3955)">
              <path
                 inkscape:connector-curvature="0"
                 d="m 0,0 10.652,-42.35 1.056,0 10.07,42.35 16.667,0 -19.071,-62.025 0,-44.007 -16.382,0 0,42.055 L -16.526,0 0,0 z"
                 style="fill:#ffffff;fill-opacity:1;fill-rule:nonzero;stroke:none"
                 id="path3509" />
            </g>
            <g
               id="g3511"
               transform="translate(234.2676,134.9756)">
              <path
                 inkscape:connector-curvature="0"
                 d="m 0,0 c 6.165,0 8.563,3.912 8.563,11.123 l 0,51.061 c 0,8.712 -4.056,12.62 -13.064,12.62 l -3.754,0 L -8.255,0 0,0 z m -24.478,90.42 23.281,0 c 18.178,0 26.435,-9.46 26.435,-29.14 l 0,-47.305 c 0,-20.269 -7.508,-29.587 -25.681,-29.587 l -24.035,0 0,106.032 z"
                 style="fill:#ffffff;fill-opacity:1;fill-rule:nonzero;stroke:none"
                 id="path3513" />
            </g>
            <g
               id="g3515"
               transform="translate(274.4121,225.3955)">
              <path
                 inkscape:connector-curvature="0"
                 d="m 0,0 42.652,0 0,-15.32 -26.278,0 0,-27.781 18.923,0 0,-15.32 -18.923,0 0,-31.688 26.278,0 0,-15.923 -42.652,0 L 0,0 z"
                 style="fill:#ffffff;fill-opacity:1;fill-rule:nonzero;stroke:none"
                 id="path3517" />
            </g>
            <g
               id="g3519"
               transform="translate(345.9326,179.2832)">
              <path
                 inkscape:connector-curvature="0"
                 d="m 0,0 6.463,0 c 7.956,0 10.063,4.36 10.063,16.082 0,11.261 -2.703,14.71 -10.666,14.71 L 0,30.792 0,0 z m 0,-59.92 -16.367,0 0,106.032 24.025,0 c 17.718,0 25.538,-8.857 25.538,-30.64 0,-12.612 -2.708,-20.722 -10.358,-26.132 l 12.01,-49.26 -16.971,0 -10.064,44.605 -7.813,0 0,-44.605 z"
                 style="fill:#ffffff;fill-opacity:1;fill-rule:nonzero;stroke:none"
                 id="path3521" />
            </g>
            <g
               id="g3523"
               transform="translate(403.0313,148.6543)">
              <path
                 inkscape:connector-curvature="0"
                 d="m 0,0 c 0.61,-10.67 3.913,-15.771 10.822,-15.771 6.01,0 10.071,4.048 10.071,10.206 0,8.862 -6.016,14.262 -14.727,22.985 -11.867,11.857 -20.274,20.579 -20.274,34.541 0,15.32 11.564,26.584 25.384,26.584 13.521,0 23.282,-9.76 24.479,-26.287 l -15.917,-2.25 c -0.609,9.161 -3.006,13.217 -9.016,13.217 -5.106,0 -8.708,-3.756 -8.708,-9.764 0,-9.611 7.058,-16.07 16.366,-25.076 C 29.747,17.42 36.808,9.453 36.808,-5.263 c 0,-15.62 -10.819,-26.432 -25.385,-26.432 -15.917,0 -26.284,10.658 -27.034,29.284 L 0,0 z"
                 style="fill:#ffffff;fill-opacity:1;fill-rule:nonzero;stroke:none"
                 id="path3525" />
            </g>
            <g
               id="g3527"
               transform="translate(337.6436,321.3203)">
              <path
                 inkscape:connector-curvature="0"
                 d="M 0,0 C 23.112,0 41.849,18.736 41.849,41.846 41.849,64.958 23.113,83.694 0,83.694 -23.108,83.691 -41.846,64.958 -41.847,41.846 l 41.85,0 L 0,0 z"
                 style="fill:#00adef;fill-opacity:1;fill-rule:nonzero;stroke:none"
                 id="path3529" />
            </g>
          </g>
        </g>
      </g>
    </g>
  </g>
</svg>
