<?xml version="1.0" encoding="UTF-8" standalone="no"?>
<!-- Created with Inkscape (http://www.inkscape.org/) -->

<svg
   xmlns:dc="http://purl.org/dc/elements/1.1/"
   xmlns:cc="http://creativecommons.org/ns#"
   xmlns:rdf="http://www.w3.org/1999/02/22-rdf-syntax-ns#"
   xmlns:svg="http://www.w3.org/2000/svg"
   xmlns="http://www.w3.org/2000/svg"
   xmlns:sodipodi="http://sodipodi.sourceforge.net/DTD/sodipodi-0.dtd"
   xmlns:inkscape="http://www.inkscape.org/namespaces/inkscape"
   id="svg4213"
   version="1.1"
   inkscape:version="0.91 r13725"
   xml:space="preserve"
   width="1027.994"
   height="316.61676"
   viewBox="0 0 1027.994 316.61676"
   sodipodi:docname="Logo.WebsiteHeader.WhiteOnRed.svg"><metadata
     id="metadata4219"><rdf:RDF><cc:Work
         rdf:about=""><dc:format>image/svg+xml</dc:format><dc:type
           rdf:resource="http://purl.org/dc/dcmitype/StillImage" /><dc:title></dc:title></cc:Work></rdf:RDF></metadata><defs
     id="defs4217"><clipPath
       clipPathUnits="userSpaceOnUse"
       id="clipPath4231"><path
         d="M 0,300 900,300 900,0 0,0 0,300 Z"
         id="path4233"
         inkscape:connector-curvature="0" /></clipPath></defs><sodipodi:namedview
     pagecolor="#ffffff"
     bordercolor="#666666"
     borderopacity="1"
     objecttolerance="10"
     gridtolerance="10"
     guidetolerance="10"
     inkscape:pageopacity="0"
     inkscape:pageshadow="2"
     inkscape:window-width="1280"
     inkscape:window-height="753"
     id="namedview4215"
     showgrid="false"
     inkscape:zoom="0.74222222"
     inkscape:cx="429.38994"
     inkscape:cy="77.355672"
     inkscape:window-x="0"
     inkscape:window-y="0"
     inkscape:window-maximized="1"
     inkscape:current-layer="g4221"
     fit-margin-top="0"
     fit-margin-left="0"
     fit-margin-right="0"
     fit-margin-bottom="0" /><g
     id="g4221"
     inkscape:groupmode="layer"
     inkscape:label="header-vector"
     transform="matrix(1.25,0,0,-1.25,-22.904191,377.24552)"><rect
       style="opacity:1;fill:#f1472c;fill-opacity:1;fill-rule:evenodd;stroke:none;stroke-width:0.6832;stroke-miterlimit:4;stroke-dasharray:none;stroke-dashoffset:0;stroke-opacity:1"
       id="rect4374"
       width="822.3952"
       height="253.2934"
       x="18.323353"
       y="-301.79642"
       transform="scale(1,-1)" /><path
       inkscape:connector-curvature="0"
       id="path4225"
       style="fill:#ffffff;fill-opacity:1;fill-rule:nonzero;stroke:none"
       d="m 123.0532,198.7891 50.952,0 0,-18.299 -31.399,0 0,-33.188 22.612,0 0,-18.313 -22.612,0 0,-37.854 31.399,0 0,-19.018 -50.952,0 0,126.672 z" /><path
       inkscape:connector-curvature="0"
       id="path4237"
       style="fill:#ffffff;fill-opacity:1;fill-rule:nonzero;stroke:none"
       d="m 218.3599,90.7695 c 7.359,0 10.227,4.67 10.227,13.284 l 0,61.005 c 0,10.407 -4.845,15.079 -15.616,15.079 l -4.481,0 0,-89.368 9.87,0 z m -29.241,108.02 27.812,0 c 21.704,0 31.584,-11.302 31.584,-34.809 l 0,-56.518 c 0,-24.219 -8.972,-35.345 -30.685,-35.345 l -28.711,0 0,126.672 z" /><path
       inkscape:connector-curvature="0"
       id="path4241"
       style="fill:#ffffff;fill-opacity:1;fill-rule:nonzero;stroke:none"
       d="m 263.9858,169.5361 c 0,19.748 11.304,31.952 30.674,31.952 18.31,0 28.18,-10.954 28.18,-32.475 l 0,-11.674 -18.843,0 0,13.459 c 0,8.796 -3.411,13.098 -10.052,13.098 -6.639,0 -10.044,-4.302 -10.044,-13.098 l 0,-70.691 c 0,-8.793 3.405,-13.285 10.044,-13.285 6.641,0 10.052,4.492 10.052,13.285 l 0,19.74 -11.846,0 0,16.141 30.689,0 0,-63.871 -9.337,0 -3.764,8.796 c -4.303,-7.901 -10.231,-11.488 -18.84,-11.488 -17.405,0 -26.913,12.202 -26.913,35.17 l 0,64.941 z" /><path
       inkscape:connector-curvature="0"
       id="path4245"
       style="fill:#ffffff;fill-opacity:1;fill-rule:nonzero;stroke:none"
       d="m 340.9956,198.7891 50.956,0 0,-18.299 -31.389,0 0,-33.188 22.602,0 0,-18.313 -22.602,0 0,-37.854 31.389,0 0,-19.018 -50.956,0 0,126.672 z" /><path
       inkscape:connector-curvature="0"
       id="path4249"
       style="fill:#ffffff;fill-opacity:1;fill-rule:nonzero;stroke:none"
       d="m 426.437,143.6992 7.716,0 c 9.517,0 12.022,5.209 12.022,19.21 0,13.455 -3.224,17.581 -12.736,17.581 l -7.002,0 0,-36.791 z m 0,-71.582 -19.548,0 0,126.672 28.702,0 c 21.173,0 30.505,-10.582 30.505,-36.605 0,-15.071 -3.233,-24.754 -12.377,-31.219 l 14.353,-58.848 -20.277,0 -12.022,53.287 -9.336,0 0,-53.287 z" /><path
       inkscape:connector-curvature="0"
       id="path4253"
       style="fill:#ffffff;fill-opacity:1;fill-rule:nonzero;stroke:none"
       d="m 489.4629,198.7891 12.738,-50.604 1.256,0 12.027,50.604 19.915,0 -22.786,-74.101 0,-52.571 -19.568,0 0,50.242 -23.32,76.43 19.738,0 z" /><path
       inkscape:connector-curvature="0"
       id="path4257"
       style="fill:#ffffff;fill-opacity:1;fill-rule:nonzero;stroke:none"
       d="m 572.7441,90.7695 c 7.363,0 10.229,4.67 10.229,13.284 l 0,61.005 c 0,10.407 -4.844,15.079 -15.608,15.079 l -4.488,0 0,-89.368 9.867,0 z m -29.236,108.02 27.802,0 c 21.717,0 31.582,-11.302 31.582,-34.809 l 0,-56.518 c 0,-24.219 -8.97,-35.345 -30.677,-35.345 l -28.707,0 0,126.672 z" /><path
       inkscape:connector-curvature="0"
       id="path4261"
       style="fill:#ffffff;fill-opacity:1;fill-rule:nonzero;stroke:none"
       d="m 620.7051,198.7891 50.957,0 0,-18.299 -31.398,0 0,-33.188 22.607,0 0,-18.313 -22.607,0 0,-37.854 31.398,0 0,-19.018 -50.957,0 0,126.672 z" /><path
       inkscape:connector-curvature="0"
       id="path4265"
       style="fill:#ffffff;fill-opacity:1;fill-rule:nonzero;stroke:none"
       d="m 706.1465,143.6992 7.719,0 c 9.504,0 12.019,5.209 12.019,19.21 0,13.455 -3.228,17.581 -12.738,17.581 l -7,0 0,-36.791 z m 0,-71.582 -19.557,0 0,126.672 28.705,0 c 21.174,0 30.51,-10.582 30.51,-36.605 0,-15.071 -3.232,-24.754 -12.379,-31.219 l 14.352,-58.848 -20.277,0 -12.016,53.287 -9.338,0 0,-53.287 z" /><path
       inkscape:connector-curvature="0"
       id="path4269"
       style="fill:#ffffff;fill-opacity:1;fill-rule:nonzero;stroke:none"
       d="m 774.3633,107.1074 c 0.729,-12.736 4.674,-18.843 12.928,-18.843 7.174,0 12.025,4.841 12.025,12.198 0,10.591 -7.183,17.041 -17.592,27.456 -14.17,14.171 -24.222,24.581 -24.222,41.264 0,18.305 13.816,31.762 30.328,31.762 16.152,0 27.812,-11.66 29.246,-31.408 l -19.02,-2.682 c -0.722,10.939 -3.591,15.783 -10.765,15.783 -6.102,0 -10.407,-4.485 -10.407,-11.658 0,-11.482 8.436,-19.196 19.557,-29.968 13.459,-13.093 21.889,-22.606 21.889,-40.187 0,-18.66 -12.918,-31.582 -30.326,-31.582 -19.012,0 -31.395,12.736 -32.289,34.991 l 18.648,2.874 z" /><path
       inkscape:connector-curvature="0"
       id="path4273"
       style="fill:#51ade5;fill-opacity:1;fill-rule:nonzero;stroke:none"
       d="m 171.9595,216.5195 c 0,37.188 -30.15,67.347 -67.345,67.347 -37.196,0 -67.349,-30.151 -67.349,-67.347 0.004,-37.19 30.154,-67.349 67.349,-67.349 l 0,67.349 67.345,0 z" /></g></svg>