<?xml version="1.0" encoding="utf-8"?>
<!-- Generated by IcoMoon.io -->
<!DOCTYPE svg PUBLIC "-//W3C//DTD SVG 1.1//EN" "http://www.w3.org/Graphics/SVG/1.1/DTD/svg11.dtd">
<svg version="1.1" xmlns="http://www.w3.org/2000/svg" xmlns:xlink="http://www.w3.org/1999/xlink" width="32" height="32" viewBox="0 0 32 32">
<path fill="#e95c2e" d="M8 27.058c0 0.55-0.45 1-1 1h-6c-0.55 0-1-0.45-1-1v-8.5c0-0.548 0.45-1 1-1h6c0.55 0 1 0.452 1 1v8.5zM20.004 27.058c0 0.55-0.45 1-1 1h-6.004c-0.55 0-1-0.45-1-1v-26c0-0.55 0.45-1 1-1h6.004c0.55 0 1 0.45 1 1v26zM32.004 27.058c0 0.55-0.45 1-1 1h-6c-0.55 0-1-0.45-1-1v-19c0-0.55 0.45-1 1-1h6c0.55 0 1 0.45 1 1v19z"></path>
</svg>
