<?xml version="1.0" encoding="utf-8"?>
<!-- Generated by IcoMoon.io -->
<!DOCTYPE svg PUBLIC "-//W3C//DTD SVG 1.1//EN" "http://www.w3.org/Graphics/SVG/1.1/DTD/svg11.dtd">
<svg version="1.1" xmlns="http://www.w3.org/2000/svg" xmlns:xlink="http://www.w3.org/1999/xlink" width="32" height="32" viewBox="0 0 32 32">
<path fill="#e95c2e" d="M25.356 24.394l-7.372-22.136h-0.746s-0.332 1.85-2.426 2.706h-0.872l-6.964 18.584s-1.068 2.876-2.896 2.876h-0.85v1.636h6.59v-1.364l-0.454-0.040c-0.512-0.192-0.77-0.762-0.606-1.27l2.020-5.386h6.814c0.652 2.164 1.152 3.82 1.292 4.246 0.496 1.492-0.124 2.164-1.644 2.164v1.648h11.532v-1.624c-1.856 0.002-2.938-0.72-3.418-2.040zM11.528 18l3.046-8.128 2.422 8.128h-5.468z"></path>
</svg>
