<?xml version="1.0" encoding="utf-8"?>
<!-- Generated by IcoMoon.io -->
<!DOCTYPE svg PUBLIC "-//W3C//DTD SVG 1.1//EN" "http://www.w3.org/Graphics/SVG/1.1/DTD/svg11.dtd">
<svg version="1.1" xmlns="http://www.w3.org/2000/svg" xmlns:xlink="http://www.w3.org/1999/xlink" width="32" height="32" viewBox="0 0 32 32">
<path fill="#e95c2e" d="M16.004 2c-7.738 0-14.004 6.268-14.004 14s6.266 14 14.004 14c7.73 0 14-6.268 14-14s-6.27-14-14-14zM24.922 14.672l-8.21 8.21c-0.392 0.378-1.030 0.378-1.416 0l-8.214-8.21c-0.388-0.388-0.388-1.026 0-1.414l1.954-1.956c0.388-0.388 1.026-0.388 1.414 0l4.844 4.842c0.384 0.39 1.026 0.39 1.416 0l4.844-4.84c0.376-0.388 1.024-0.388 1.414 0l1.954 1.954c0.386 0.388 0.386 1.026 0 1.414z"></path>
</svg>
