<?xml version="1.0" encoding="utf-8"?>
<!-- Generated by IcoMoon.io -->
<!DOCTYPE svg PUBLIC "-//W3C//DTD SVG 1.1//EN" "http://www.w3.org/Graphics/SVG/1.1/DTD/svg11.dtd">
<svg version="1.1" xmlns="http://www.w3.org/2000/svg" xmlns:xlink="http://www.w3.org/1999/xlink" width="32" height="32" viewBox="0 0 32 32">
<path fill="#e95c2e" d="M29.536 8.71c0.386-0.392 0.382-1.030-0.004-1.418l-2.742-2.742c-0.376-0.388-1.024-0.388-1.41 0.002l-10.666 10.74c-0.39 0.39-0.39 1.030 0 1.418l10.666 10.74c0.386 0.382 1.034 0.384 1.41 0l2.742-2.742c0.386-0.38 0.39-1.032 0.004-1.418l-6.516-6.58c-0.386-0.388-0.386-1.032 0-1.42l6.516-6.58zM15.534 8.71c0.386-0.39 0.384-1.028-0.004-1.418l-2.744-2.742c-0.39-0.388-1.026-0.386-1.412 0.002l-10.668 10.74c-0.388 0.39-0.388 1.030 0 1.418l10.668 10.74c0.388 0.382 1.024 0.384 1.412 0l2.744-2.742c0.388-0.38 0.39-1.032 0.004-1.418l-6.518-6.58c-0.388-0.39-0.388-1.034 0-1.422l6.518-6.578z"></path>
</svg>
