<?xml version="1.0" encoding="utf-8"?>
<!-- Generated by IcoMoon.io -->
<!DOCTYPE svg PUBLIC "-//W3C//DTD SVG 1.1//EN" "http://www.w3.org/Graphics/SVG/1.1/DTD/svg11.dtd">
<svg version="1.1" xmlns="http://www.w3.org/2000/svg" xmlns:xlink="http://www.w3.org/1999/xlink" width="32" height="32" viewBox="0 0 32 32">
<path fill="#e95c2e" d="M16.004 2c-7.736 0-14.004 6.266-14.004 14 0 7.73 6.268 14 14.004 14 7.73 0 14-6.27 14-14 0-7.734-6.27-14-14-14zM20.7 22.964l-1.954 1.954c-0.39 0.386-1.028 0.386-1.414 0l-8.216-8.21c-0.388-0.39-0.388-1.028 0-1.416l8.216-8.21c0.386-0.388 1.024-0.388 1.414 0l1.958 1.954c0.382 0.388 0.382 1.026 0 1.414l-4.844 4.842c-0.39 0.388-0.39 1.030 0 1.416l4.838 4.842c0.392 0.38 0.392 1.024 0.002 1.414z"></path>
</svg>
