<?xml version="1.0" encoding="utf-8"?>
<!-- Generated by IcoMoon.io -->
<!DOCTYPE svg PUBLIC "-//W3C//DTD SVG 1.1//EN" "http://www.w3.org/Graphics/SVG/1.1/DTD/svg11.dtd">
<svg version="1.1" xmlns="http://www.w3.org/2000/svg" xmlns:xlink="http://www.w3.org/1999/xlink" width="32" height="32" viewBox="0 0 32 32">
<path fill="#e95c2e" d="M2.47 8.71c-0.388-0.39-0.386-1.028 0.002-1.418l2.742-2.742c0.39-0.388 1.026-0.386 1.412 0.002l10.67 10.738c0.376 0.39 0.376 1.030 0 1.416l-10.67 10.74c-0.388 0.384-1.024 0.386-1.412 0.004l-2.742-2.742c-0.388-0.382-0.39-1.034-0.002-1.418l6.514-6.58c0.388-0.39 0.388-1.034 0-1.422l-6.514-6.578zM16.472 8.71c-0.386-0.39-0.386-1.028 0.004-1.418l2.744-2.742c0.38-0.388 1.028-0.388 1.41 0.002l10.668 10.738c0.38 0.39 0.38 1.030 0 1.416l-10.668 10.74c-0.382 0.384-1.030 0.386-1.41 0.004l-2.744-2.742c-0.39-0.382-0.39-1.034-0.004-1.418l6.516-6.58c0.386-0.39 0.386-1.034 0-1.422l-6.516-6.578z"></path>
</svg>
