<?xml version="1.0" encoding="utf-8"?>
<!-- Generated by IcoMoon.io -->
<!DOCTYPE svg PUBLIC "-//W3C//DTD SVG 1.1//EN" "http://www.w3.org/Graphics/SVG/1.1/DTD/svg11.dtd">
<svg version="1.1" xmlns="http://www.w3.org/2000/svg" xmlns:xlink="http://www.w3.org/1999/xlink" width="32" height="32" viewBox="0 0 32 32">
<path fill="#e95c2e" d="M30.352 18.082c0.090-0.654 0.152-1.316 0.152-1.996 0-0.72-0.070-1.42-0.172-2.112l-4.55-0.586c-0.23-0.852-0.566-1.654-0.996-2.402l2.792-3.616c-0.832-1.102-1.812-2.078-2.918-2.904l-3.614 2.782c-0.746-0.43-1.548-0.766-2.4-0.998l-0.584-4.504c-0.676-0.096-1.354-0.162-2.058-0.162s-1.388 0.066-2.064 0.164l-0.582 4.502c-0.852 0.232-1.652 0.568-2.4 0.998l-3.61-2.782c-1.104 0.826-2.088 1.802-2.918 2.904l2.79 3.616c-0.43 0.748-0.766 1.548-0.998 2.4l-4.552 0.588c-0.1 0.692-0.17 1.392-0.17 2.112 0 0.68 0.062 1.342 0.154 1.996l4.57 0.59c0.23 0.852 0.568 1.652 0.998 2.4l-2.834 3.672c0.822 1.1 1.792 2.076 2.886 2.904l3.684-2.84c0.748 0.43 1.548 0.766 2.4 0.996l0.596 4.622c0.674 0.094 1.354 0.16 2.050 0.16s1.376-0.066 2.042-0.16l0.598-4.622c0.852-0.23 1.652-0.566 2.402-0.996l3.684 2.84c1.094-0.828 2.062-1.804 2.886-2.904l-2.832-3.674c0.43-0.746 0.766-1.546 0.996-2.398l4.572-0.59zM16.004 21.11c-2.812 0-5.086-2.274-5.086-5.082 0-2.804 2.274-5.082 5.086-5.082 2.804 0 5.082 2.276 5.082 5.082 0 2.808-2.278 5.082-5.082 5.082z"></path>
</svg>
