<?xml version="1.0" encoding="utf-8"?>
<!-- Generated by IcoMoon.io -->
<!DOCTYPE svg PUBLIC "-//W3C//DTD SVG 1.1//EN" "http://www.w3.org/Graphics/SVG/1.1/DTD/svg11.dtd">
<svg version="1.1" xmlns="http://www.w3.org/2000/svg" xmlns:xlink="http://www.w3.org/1999/xlink" width="32" height="32" viewBox="0 0 32 32">
<path fill="#e95c2e" d="M5.13 10.916l0.002-0.042c-3.036 1.24-5.132 3.69-5.132 6.548 0 2.292 1.36 4.314 3.454 5.676 0.612 4.142-2.622 6.736-2.622 6.736s5.23 0.176 8.398-5.014l0.286 0.022c2.302 0 4.384-0.664 6.034-1.724-6.054-1.746-10.42-6.552-10.42-12.202zM27.84 17.796c2.542-1.636 4.164-4.122 4.164-6.88 0-4.924-5.122-8.916-11.438-8.916s-11.436 3.992-11.436 8.916 5.122 8.916 11.436 8.916l0.356-0.014c3.804 6.224 10.082 6.014 10.082 6.014s-3.86-3.092-3.164-8.036z"></path>
</svg>
