<?xml version="1.0" encoding="utf-8"?>
<!-- Generated by IcoMoon.io -->
<!DOCTYPE svg PUBLIC "-//W3C//DTD SVG 1.1//EN" "http://www.w3.org/Graphics/SVG/1.1/DTD/svg11.dtd">
<svg version="1.1" xmlns="http://www.w3.org/2000/svg" xmlns:xlink="http://www.w3.org/1999/xlink" width="32" height="32" viewBox="0 0 32 32">
<path fill="#e95c2e" d="M24.16 22.582c0.93-0.764 1.71-1.632 2.328-2.582h-7.734c-2.066 0-3.75-1.684-3.75-3.75v-8.5c0-1.436 0.812-2.686 2-3.316v-0.012c-0.968-0.164-1.97-0.256-3.004-0.256-7.732 0-14 4.888-14 10.918s6.268 10.916 14 10.916c0.956 0 1.886-0.078 2.79-0.218 3.79 6.44 10.214 6.218 10.214 6.218s-4.57-3.676-2.844-9.418zM31.254 7h-1.25v-3c0-2.762-2.238-5-5-5s-5 2.238-5 5v3h-1.25c-0.414 0-0.75 0.338-0.75 0.75v8.5c0 0.412 0.336 0.75 0.75 0.75h12.5c0.41 0 0.75-0.338 0.75-0.75v-8.5c0-0.412-0.34-0.75-0.75-0.75zM22.52 4c0-1.37 1.118-2.482 2.484-2.482s2.48 1.114 2.48 2.482v3h-4.964v-3z"></path>
</svg>
