<?xml version="1.0" encoding="utf-8"?>
<!-- Generated by IcoMoon.io -->
<!DOCTYPE svg PUBLIC "-//W3C//DTD SVG 1.1//EN" "http://www.w3.org/Graphics/SVG/1.1/DTD/svg11.dtd">
<svg version="1.1" xmlns="http://www.w3.org/2000/svg" xmlns:xlink="http://www.w3.org/1999/xlink" width="32" height="32" viewBox="0 0 32 32">
<path fill="#e95c2e" d="M5.13 11.082l0.002-0.042c-3.036 1.24-5.132 3.69-5.132 6.548 0 2.292 1.36 4.314 3.454 5.676 0.612 4.142-2.622 6.736-2.622 6.736s5.23 0.176 8.398-5.016l0.286 0.024c2.302 0 4.384-0.664 6.034-1.722-6.054-1.75-10.42-6.554-10.42-12.204zM27.848 17.928c0.938-0.608 1.762-1.318 2.41-2.124-0.422 0.124-0.86 0.198-1.3 0.198l-0.582-0.086 0.042-0.096-0.164 0.076c-0.68-0.104-1.336-0.308-1.91-0.698l-1.328-0.9-1.348 0.902c-0.758 0.518-1.668 0.798-2.618 0.798-0.958 0-1.876-0.286-2.656-0.826-1.604-1.12-2.344-3.052-1.89-4.938l0.528-2.226-1.576-1.568c-0.768-0.728-1.21-1.692-1.364-2.706-2.996 1.608-4.962 4.3-4.962 7.348 0 4.924 5.122 8.916 11.436 8.916l0.352-0.018c3.804 6.226 10.086 6.018 10.086 6.018s-3.876-3.108-3.156-8.070zM31.96 2.812c-0.102-0.264-0.352-0.438-0.632-0.438h-3.976l-1.714-3.948c-0.106-0.256-0.356-0.426-0.634-0.426s-0.528 0.17-0.628 0.428l-1.716 3.948h-3.98c-0.282 0-0.532 0.174-0.628 0.438-0.102 0.264-0.032 0.56 0.182 0.746l3.208 3.192-1.042 4.416c-0.070 0.272 0.042 0.552 0.266 0.712 0.116 0.080 0.252 0.12 0.384 0.12 0.124 0 0.266-0.038 0.376-0.116l3.578-2.41 3.57 2.41c0.118 0.078 0.25 0.116 0.38 0.116 0.132 0 0.284-0.040 0.386-0.12 0.226-0.16 0.336-0.442 0.274-0.714l-1.042-4.416 3.208-3.192c0.208-0.184 0.278-0.482 0.18-0.746z"></path>
</svg>
