<?xml version="1.0" encoding="utf-8"?>
<!-- Generated by IcoMoon.io -->
<!DOCTYPE svg PUBLIC "-//W3C//DTD SVG 1.1//EN" "http://www.w3.org/Graphics/SVG/1.1/DTD/svg11.dtd">
<svg version="1.1" xmlns="http://www.w3.org/2000/svg" xmlns:xlink="http://www.w3.org/1999/xlink" width="32" height="32" viewBox="0 0 32 32">
<path fill="#e95c2e" d="M26.168 20.558c0.938-0.782 1.746-1.656 2.364-2.624-0.782-0.070-1.54-0.294-2.192-0.734l-1.336-0.902-1.336 0.902c-0.774 0.522-1.68 0.8-2.618 0.8-0.958 0-1.876-0.29-2.652-0.828-1.606-1.114-2.348-3.048-1.894-4.938l0.528-2.228-1.576-1.568c-1.354-1.284-1.818-3.288-1.15-5.044 0.164-0.434 0.396-0.83 0.67-1.186-7.254 0.412-12.976 5.118-12.976 10.876 0 6.030 6.268 10.916 14.004 10.916 0.954 0 1.872-0.1 2.77-0.242 3.79 6.468 10.23 6.242 10.23 6.242s-4.582-3.688-2.836-9.442zM31.96 4.812c-0.102-0.264-0.352-0.438-0.632-0.438h-3.976l-1.714-3.948c-0.106-0.258-0.356-0.426-0.634-0.426s-0.528 0.168-0.628 0.426l-1.716 3.948h-3.976c-0.282 0-0.536 0.174-0.632 0.438-0.098 0.262-0.028 0.56 0.188 0.744l3.208 3.192-1.048 4.416c-0.066 0.274 0.042 0.554 0.274 0.714 0.12 0.080 0.25 0.12 0.38 0.12 0.124 0 0.268-0.038 0.376-0.116l3.57-2.41 3.574 2.412c0.118 0.076 0.25 0.116 0.384 0.116s0.28-0.040 0.382-0.12c0.23-0.16 0.34-0.44 0.278-0.714l-1.042-4.416 3.208-3.192c0.204-0.186 0.274-0.482 0.176-0.746z"></path>
</svg>
