<?xml version="1.0" encoding="utf-8"?>
<!-- Generated by IcoMoon.io -->
<!DOCTYPE svg PUBLIC "-//W3C//DTD SVG 1.1//EN" "http://www.w3.org/Graphics/SVG/1.1/DTD/svg11.dtd">
<svg version="1.1" xmlns="http://www.w3.org/2000/svg" xmlns:xlink="http://www.w3.org/1999/xlink" width="32" height="32" viewBox="0 0 32 32">
<path fill="#e95c2e" d="M23.64 22.336c2.664-1.562 4.364-3.924 4.364-6.566 0-4.168-4.234-7.618-9.804-8.348 1.652-0.804 2.804-2.488 2.804-4.454 0-2.742-2.222-4.966-4.968-4.966s-4.964 2.224-4.964 4.966c0 1.96 1.146 3.64 2.794 4.448-5.592 0.724-9.836 4.18-9.836 8.354 0 4.696 5.366 8.508 11.986 8.508l0.372-0.014c3.992 5.94 10.566 5.734 10.566 5.734s-4.044-2.948-3.314-7.662zM14 15.822v-8.33c0.624 0.28 1.308 0.444 2.036 0.444 0.708 0 1.372-0.148 1.968-0.41v8.294c0 1.618-4.004 1.652-4.004 0.002z"></path>
</svg>
