<?xml version="1.0" encoding="utf-8"?>
<!-- Generated by IcoMoon.io -->
<!DOCTYPE svg PUBLIC "-//W3C//DTD SVG 1.1//EN" "http://www.w3.org/Graphics/SVG/1.1/DTD/svg11.dtd">
<svg version="1.1" xmlns="http://www.w3.org/2000/svg" xmlns:xlink="http://www.w3.org/1999/xlink" width="32" height="32" viewBox="0 0 32 32">
<path fill="#e95c2e" d="M16.004 2c-7.736 0-14.004 6.268-14.004 14s6.268 14 14.004 14c7.73 0 14-6.268 14-14s-6.27-14-14-14zM24.054 20.568c0.124 0.126 0.2 0.298 0.2 0.478 0 0.182-0.074 0.354-0.2 0.48l-2.524 2.524c-0.128 0.124-0.3 0.2-0.48 0.2s-0.352-0.072-0.48-0.2l-4.566-4.566-4.572 4.566c-0.128 0.124-0.3 0.2-0.48 0.2s-0.352-0.072-0.48-0.2l-2.522-2.524c-0.126-0.124-0.2-0.296-0.2-0.48 0-0.176 0.072-0.352 0.2-0.476l4.566-4.57-4.566-4.568c-0.126-0.128-0.2-0.3-0.2-0.48s0.072-0.352 0.2-0.48l2.524-2.524c0.126-0.126 0.298-0.2 0.48-0.2 0.178 0 0.352 0.072 0.48 0.2l4.57 4.568 4.566-4.568c0.128-0.126 0.3-0.2 0.48-0.2s0.352 0.072 0.48 0.2l2.524 2.524c0.124 0.126 0.2 0.298 0.2 0.48 0 0.178-0.074 0.352-0.2 0.48l-4.566 4.568 4.566 4.568z"></path>
</svg>
