<?xml version="1.0" encoding="utf-8"?>
<!-- Generated by IcoMoon.io -->
<!DOCTYPE svg PUBLIC "-//W3C//DTD SVG 1.1//EN" "http://www.w3.org/Graphics/SVG/1.1/DTD/svg11.dtd">
<svg version="1.1" xmlns="http://www.w3.org/2000/svg" xmlns:xlink="http://www.w3.org/1999/xlink" width="32" height="32" viewBox="0 0 32 32">
<path fill="#e95c2e" d="M7.020 27.85c0.388 0.388 1.024 0.39 1.412 0.002l6.864-6.862c0.388-0.388 1.028-0.388 1.416 0l6.864 6.862c0.384 0.388 1.028 0.386 1.414-0.002l2.81-2.834c0.382-0.39 0.378-1.028-0.004-1.418l-6.794-6.8c-0.384-0.386-0.384-1.028-0.004-1.416l6.802-6.86c0.378-0.39 0.378-1.030 0-1.418l-2.814-2.836c-0.39-0.39-1.026-0.39-1.414-0.002l-6.86 6.862c-0.39 0.388-1.032 0.388-1.416 0l-6.864-6.862c-0.39-0.39-1.024-0.388-1.412 0.002l-2.814 2.834c-0.388 0.39-0.388 1.030 0 1.42l6.806 6.858c0.386 0.39 0.386 1.028-0.002 1.416l-6.8 6.798c-0.388 0.39-0.39 1.032-0.002 1.418l2.812 2.838z"></path>
</svg>
