<?xml version="1.0" encoding="utf-8"?>
<!-- Generated by IcoMoon.io -->
<!DOCTYPE svg PUBLIC "-//W3C//DTD SVG 1.1//EN" "http://www.w3.org/Graphics/SVG/1.1/DTD/svg11.dtd">
<svg version="1.1" xmlns="http://www.w3.org/2000/svg" xmlns:xlink="http://www.w3.org/1999/xlink" width="32" height="32" viewBox="0 0 32 32">
<path fill="#e95c2e" d="M16.004 4c-9.004 0-16.004 12-16.004 12s7.060 12 16.004 12c9 0 16-12 16-12s-6.938-12-16-12zM16.004 24c-4.42 0-8.004-3.582-8.004-8s3.582-8 8.004-8c4.418 0 8 3.582 8 8s-3.582 8-8 8z"></path>
<path fill="#e95c2e" d="M19.738 16c0 2.062-1.672 3.734-3.734 3.734s-3.734-1.672-3.734-3.734c0-2.062 1.672-3.734 3.734-3.734s3.734 1.672 3.734 3.734z"></path>
</svg>
