<?xml version="1.0" encoding="utf-8"?>
<!-- Generated by IcoMoon.io -->
<!DOCTYPE svg PUBLIC "-//W3C//DTD SVG 1.1//EN" "http://www.w3.org/Graphics/SVG/1.1/DTD/svg11.dtd">
<svg version="1.1" xmlns="http://www.w3.org/2000/svg" xmlns:xlink="http://www.w3.org/1999/xlink" width="32" height="32" viewBox="0 0 32 32">
<path fill="#e95c2e" d="M25.004 14h-10c-0.552 0-1.004-0.45-1.004-1v-10c0-0.55-0.45-1-1-1h-6c-0.55 0-1 0.45-1 1v24.058c0 0.55 0.45 1 1 1h18.004c0.55 0 1-0.45 1-1v-12.058c0-0.55-0.45-1-1-1zM17.004 12h8c0.55 0 0.68-0.318 0.292-0.708l-8.586-8.584c-0.39-0.39-0.706-0.258-0.706 0.292v8c0 0.55 0.45 1 1 1z"></path>
</svg>
