<?xml version="1.0" encoding="utf-8"?>
<!-- Generated by IcoMoon.io -->
<!DOCTYPE svg PUBLIC "-//W3C//DTD SVG 1.1//EN" "http://www.w3.org/Graphics/SVG/1.1/DTD/svg11.dtd">
<svg version="1.1" xmlns="http://www.w3.org/2000/svg" xmlns:xlink="http://www.w3.org/1999/xlink" width="32" height="32" viewBox="0 0 32 32">
<path fill="#e95c2e" d="M3.5 0h-1c-1.38 0-2.5 1.12-2.5 2.5v1c0 1.38 1.12 2.5 2.5 2.5h1c1.38 0 2.5-1.12 2.5-2.5v-1c0-1.38-1.12-2.5-2.5-2.5zM29.504 0h-17.004c-1.38 0-2.5 1.12-2.5 2.5v1c0 1.38 1.12 2.5 2.5 2.5h17.004c1.378 0 2.5-1.12 2.5-2.5v-1c0-1.38-1.122-2.5-2.5-2.5zM3.5 12h-1c-1.38 0-2.5 1.12-2.5 2.5v1c0 1.378 1.12 2.5 2.5 2.5h1c1.38 0 2.5-1.122 2.5-2.5v-1c0-1.38-1.12-2.5-2.5-2.5zM29.504 12h-17.004c-1.38 0-2.5 1.12-2.5 2.5v1c0 1.378 1.12 2.5 2.5 2.5h17.004c1.378 0 2.5-1.122 2.5-2.5v-1c0-1.38-1.122-2.5-2.5-2.5zM3.5 24h-1c-1.38 0-2.5 1.122-2.5 2.5v1c0 1.378 1.12 2.5 2.5 2.5h1c1.38 0 2.5-1.122 2.5-2.5v-1c0-1.378-1.12-2.5-2.5-2.5zM29.504 24h-17.004c-1.38 0-2.5 1.122-2.5 2.5v1c0 1.378 1.12 2.5 2.5 2.5h17.004c1.378 0 2.5-1.122 2.5-2.5v-1c0-1.378-1.122-2.5-2.5-2.5z"></path>
</svg>
