<?xml version="1.0" encoding="utf-8"?>
<!-- Generated by IcoMoon.io -->
<!DOCTYPE svg PUBLIC "-//W3C//DTD SVG 1.1//EN" "http://www.w3.org/Graphics/SVG/1.1/DTD/svg11.dtd">
<svg version="1.1" xmlns="http://www.w3.org/2000/svg" xmlns:xlink="http://www.w3.org/1999/xlink" width="32" height="32" viewBox="0 0 32 32">
<path fill="#e95c2e" d="M27.454 15.428c-2.618-2.616-6.496-3.138-9.654-1.636l-11.798-11.792h-6.002v4h2v3.236l0.756 0.764h3.244v2h2v3.244h3.244l1.728 1.724-1.972 2.032 1.984 1.98c-0.124 2.324 0.67 4.692 2.446 6.468 3.32 3.306 8.704 3.306 12.024 0 3.316-3.32 3.316-8.702 0-12.020zM25.796 25.792c-1.292 1.292-3.386 1.292-4.676 0-1.292-1.292-1.292-3.384 0-4.676 1.29-1.292 3.376-1.292 4.676 0 1.29 1.292 1.29 3.388 0 4.676z"></path>
</svg>
