<?xml version="1.0" encoding="utf-8"?>
<!-- Generated by IcoMoon.io -->
<!DOCTYPE svg PUBLIC "-//W3C//DTD SVG 1.1//EN" "http://www.w3.org/Graphics/SVG/1.1/DTD/svg11.dtd">
<svg version="1.1" xmlns="http://www.w3.org/2000/svg" xmlns:xlink="http://www.w3.org/1999/xlink" width="32" height="32" viewBox="0 0 32 32">
<path fill="#e95c2e" d="M17.372 18.418c-0.2-0.204-0.282-0.532-0.004-0.804l0.792-0.836c0.992-1.042 1.136-2.662 0.348-3.936-0.176-0.306-0.266-0.466-0.41-0.608l-5.608-5.61c-0.592-0.588-1.376-0.914-2.21-0.914-0.86 0-1.662 0.342-2.258 0.962l-0.474 0.536c-1.208 1.256-1.19 3.294 0.048 4.536l0.426 0.432c-0.556 0.814-1.144 2.12-1.354 3.316l-1.504-1.524c-1.272-1.274-1.968-2.974-1.964-4.784s0.708-3.506 1.984-4.774l0.254-0.246c1.274-1.266 2.974-1.964 4.786-1.964 1.818 0 3.522 0.702 4.796 1.974l5.516 5.528 0.336 0.402 0.13 0.178c1.452 1.808 1.87 4.202 1.12 6.4-0.344 1.014-0.876 1.88-1.578 2.586l-1.144 1.146-2.028-1.996zM21.778 29.8c-1.812 0-3.508-0.708-4.778-1.976l-5.578-5.542-0.236-0.29-0.144-0.184c-1.452-1.746-1.922-4.094-1.256-6.274 0.338-1.108 0.896-2.054 1.658-2.812l1.114-1.106 2.086 2.086c0.168 0.168 0.206 0.352 0.206 0.476 0 0.174-0.068 0.344-0.19 0.462l-0.848 0.874c-1.034 1.076-1.152 2.786-0.276 4.064l0.322 0.476 5.65 5.602c0.586 0.59 1.372 0.914 2.204 0.914 0.866 0 1.656-0.344 2.254-0.964l0.492-0.562c1.208-1.262 1.18-3.292-0.052-4.54l-0.37-0.352c0.598-0.872 1.292-2.308 1.328-3.632l1.464 1.454c2.64 2.636 2.64 6.938 0.008 9.566l-0.286 0.292c-1.268 1.266-2.964 1.968-4.772 1.968z"></path>
</svg>
