<?xml version="1.0" encoding="utf-8"?>
<!-- Generated by IcoMoon.io -->
<!DOCTYPE svg PUBLIC "-//W3C//DTD SVG 1.1//EN" "http://www.w3.org/Graphics/SVG/1.1/DTD/svg11.dtd">
<svg version="1.1" xmlns="http://www.w3.org/2000/svg" xmlns:xlink="http://www.w3.org/1999/xlink" width="32" height="32" viewBox="0 0 32 32">
<path fill="#e95c2e" d="M25.004 14.118h-1v-4.17c0-4.39-3.554-7.948-7.946-7.948-4.394 0-7.952 3.558-7.952 7.948v4.17h-1.106c-0.55 0-1 0.45-1 1v11.94c0 0.55 0.45 1 1 1h18.004c0.55 0 1-0.45 1-1v-11.94c0-0.55-0.45-1-1-1zM12.106 9.948c0-2.176 1.77-3.948 3.952-3.948 2.176 0 3.946 1.77 3.946 3.948v4.17h-7.898v-4.17z"></path>
</svg>
