<?xml version="1.0" encoding="utf-8"?>
<!-- Generated by IcoMoon.io -->
<!DOCTYPE svg PUBLIC "-//W3C//DTD SVG 1.1//EN" "http://www.w3.org/Graphics/SVG/1.1/DTD/svg11.dtd">
<svg version="1.1" xmlns="http://www.w3.org/2000/svg" xmlns:xlink="http://www.w3.org/1999/xlink" width="32" height="32" viewBox="0 0 32 32">
<path fill="#e95c2e" d="M29.296 25.576l-8.46-8.456c1.050-1.71 1.668-3.716 1.668-5.876 0-6.21-5.040-11.248-11.254-11.248-6.212 0.004-11.25 5.042-11.25 11.254 0 6.21 5.038 11.25 11.25 11.25 2.152 0 4.16-0.618 5.872-1.664l8.458 8.458c0.388 0.39 1.030 0.39 1.414 0l2.302-2.292c0.388-0.4 0.388-1.038 0-1.426zM2.596 11.25c0-4.78 3.876-8.654 8.654-8.654 4.782 0 8.656 3.874 8.656 8.654 0 4.782-3.872 8.654-8.656 8.654-4.78 0-8.654-3.872-8.654-8.654z"></path>
</svg>
