<?xml version="1.0" encoding="utf-8"?>
<!-- Generated by IcoMoon.io -->
<!DOCTYPE svg PUBLIC "-//W3C//DTD SVG 1.1//EN" "http://www.w3.org/Graphics/SVG/1.1/DTD/svg11.dtd">
<svg version="1.1" xmlns="http://www.w3.org/2000/svg" xmlns:xlink="http://www.w3.org/1999/xlink" width="32" height="32" viewBox="0 0 32 32">
<path fill="#e95c2e" d="M30.004 22.554c0-1.442 0-2.942 0-4.028 0-2.912-1.648-4.5-4.5-4.5-2.856 0-7 0-7 0-0.278 0-0.5-0.224-0.5-0.5v-4.080c1.192-0.692 2-1.968 2-3.446 0-2.208-1.79-4-4-4-2.212 0-4.004 1.792-4.004 4 0 1.476 0.81 2.752 2 3.444v4.084c0 0.276-0.224 0.5-0.5 0.5 0 0-4.276 0-7 0s-4.5 1.836-4.5 4.504c0 1.042 0 2.554 0 4.024-1.19 0.706-2 1.968-2 3.458 0 2.208 1.792 4 4 4s4-1.792 4-4c0-1.464-0.81-2.754-2-3.458v-4.024c0-0.278 0.224-0.5 0.5-0.5h7.072c0.236 0.036 0.428 0.22 0.428 0.468v4.054c-1.19 0.694-2 1.966-2 3.446 0 2.208 1.792 4 4.004 4 2.21 0 4-1.792 4-4 0-1.476-0.808-2.752-2-3.446v-4.054c0-0.248 0.196-0.432 0.43-0.468h7.070c0.274 0 0.5 0.222 0.5 0.5v4.024c-1.192 0.706-2 1.968-2 3.458 0 2.208 1.792 4 4 4s4-1.792 4-4c0-1.49-0.808-2.768-2-3.46z"></path>
</svg>
