<?xml version="1.0" encoding="utf-8"?>
<!-- Generated by IcoMoon.io -->
<!DOCTYPE svg PUBLIC "-//W3C//DTD SVG 1.1//EN" "http://www.w3.org/Graphics/SVG/1.1/DTD/svg11.dtd">
<svg version="1.1" xmlns="http://www.w3.org/2000/svg" xmlns:xlink="http://www.w3.org/1999/xlink" width="32" height="32" viewBox="0 0 32 32">
<path fill="#e95c2e" d="M16.368 15.856l-3.81 3.966-7.076-4.872 9.428-9.426 5.246 6.366-3.788 3.966zM12.876 0.81c-0.472-0.832-1.606-1.298-2.692 0.166-0.518 0.698-9.454 9.528-9.82 9.966-0.364 0.436-0.588 1.442 0.088 1.952 0.68 0.516 11.222 7.866 11.222 7.866l-0.45 0.458c1.4 1.458 1.632 1.708 2.092 1.726 1.5 0.032 4.070-2.914 5.156-1.708 1.082 1.208 7.074 7.958 7.074 7.958 1.020 1.062 2.61 1.118 3.63 0.082 1.042-1.042 1.082-2.622 0.050-3.696 0 0-5.484-5.27-7.808-7.238-1.156-0.958 1.738-4.102 1.708-5.678-0.016-0.476-0.25-0.722-1.646-2.19l-0.44 0.486c0 0.006-7.692-9.318-8.164-10.15z"></path>
</svg>
