<?xml version="1.0" encoding="utf-8"?>
<!-- Generated by IcoMoon.io -->
<!DOCTYPE svg PUBLIC "-//W3C//DTD SVG 1.1//EN" "http://www.w3.org/Graphics/SVG/1.1/DTD/svg11.dtd">
<svg version="1.1" xmlns="http://www.w3.org/2000/svg" xmlns:xlink="http://www.w3.org/1999/xlink" width="32" height="32" viewBox="0 0 32 32">
<path fill="#e95c2e" d="M13.444 22.582l0.902-0.34-0.33-0.64c-1.072-2.078-1.37-3.868-1.522-5.344-0.164-1.616-0.288-5.662 2.106-8.378 0.488-0.556 0.986-0.986 1.486-1.35 0.024-1.652-0.27-3.532-1.292-4.69-1.236-1.4-2.8-1.574-2.8-1.574l-0.994-0.11-0.996 0.11s-1.566 0.174-2.796 1.574c-1.234 1.404-1.434 3.896-1.25 5.71 0.12 1.166 0.34 2.526 1.148 4.1 0.548 1.066 0.682 1.234 0.71 2.020 0.044 1.19 0.054 2.306-1.342 3.076-1.394 0.766-3.128 1.016-4.806 2.176-1.192 0.82-1.418 2.066-1.56 2.918l-0.102 0.82c-0.058 0.546 0.346 0.996 0.896 0.996h10.024c0.914-0.48 1.78-0.804 2.518-1.074zM10.128 30.192c0.14-0.854 0.368-2.1 1.56-2.92 1.676-1.162 3.416-1.412 4.808-2.178 1.398-0.77 1.386-1.886 1.344-3.074-0.028-0.786-0.16-0.954-0.708-2.020-0.812-1.574-1.030-2.934-1.152-4.098-0.186-1.818 0.016-4.31 1.25-5.712 1.23-1.4 2.796-1.574 2.796-1.574l0.988-0.11 0.992 0.11s1.562 0.174 2.792 1.574c1.23 1.402 1.44 3.894 1.246 5.71-0.124 1.166-0.344 2.524-1.142 4.098-0.542 1.066-0.682 1.234-0.708 2.020-0.042 1.19-0.124 2.44 1.274 3.208 1.394 0.77 3.208 1.054 4.876 2.208 1.846 1.282 1.644 3.566 1.644 3.566-0.044 0.55-0.538 1-1.084 1h-19.982c-0.55 0-0.954-0.446-0.896-0.992l0.102-0.816z"></path>
</svg>
