<?xml version="1.0" encoding="utf-8"?>
<!-- Generated by IcoMoon.io -->
<!DOCTYPE svg PUBLIC "-//W3C//DTD SVG 1.1//EN" "http://www.w3.org/Graphics/SVG/1.1/DTD/svg11.dtd">
<svg version="1.1" xmlns="http://www.w3.org/2000/svg" xmlns:xlink="http://www.w3.org/1999/xlink" width="32" height="32" viewBox="0 0 32 32">
<path fill="#e95c2e" d="M2 30c-0.55 0-0.996-0.45-0.992-1 0 0 0.014-1.492 2.142-3.024 2.276-1.636 4.694-1.938 6.616-2.996s1.908-2.598 1.85-4.23c-0.038-1.086-0.224-1.314-0.978-2.784-1.112-2.168-1.418-4.042-1.582-5.646-0.254-2.504 0.022-6.070 1.72-8.002 1.694-1.928 4.228-2.208 4.228-2.208l1-0.11 0.996 0.11s2.532 0.28 4.226 2.208c1.7 1.932 1.976 5.5 1.718 8.002-0.16 1.604-0.468 3.478-1.582 5.646-0.754 1.468-0.952 1.698-0.976 2.784-0.058 1.632-0.070 3.172 1.852 4.23s4.34 1.36 6.614 2.996c2.128 1.532 2.144 3.024 2.144 3.024 0.004 0.55-0.442 1-0.992 1h-28.004z"></path>
</svg>
