<?xml version="1.0" encoding="utf-8"?>
<!-- Generated by IcoMoon.io -->
<!DOCTYPE svg PUBLIC "-//W3C//DTD SVG 1.1//EN" "http://www.w3.org/Graphics/SVG/1.1/DTD/svg11.dtd">
<svg version="1.1" xmlns="http://www.w3.org/2000/svg" xmlns:xlink="http://www.w3.org/1999/xlink" width="32" height="32" viewBox="0 0 32 32">
<path fill="#e95c2e" d="M30.004 4.058h-28.004c-1.1 0-2 0.9-2 2v20c0 1.1 0.9 2 2 2h28.004c1.098 0 2-0.9 2-2v-20c0-1.1-0.902-2-2-2zM9 8.058c1.656 0 3 1.344 3 3s-1.344 3-3 3-3-1.344-3-3 1.344-3 3-3zM27.004 24.058h-22.004c-0.55 0-0.75-0.376-0.446-0.832l2.89-4.336c0.304-0.458 0.874-0.516 1.262-0.124l2.586 2.586c0.388 0.388 1.026 0.388 1.414 0l6.59-6.586c0.376-0.388 0.988-0.356 1.332 0.074l6.75 8.438c0.344 0.43 0.176 0.78-0.374 0.78z"></path>
</svg>
