<?xml version="1.0" encoding="utf-8"?>
<!-- Generated by IcoMoon.io -->
<!DOCTYPE svg PUBLIC "-//W3C//DTD SVG 1.1//EN" "http://www.w3.org/Graphics/SVG/1.1/DTD/svg11.dtd">
<svg version="1.1" xmlns="http://www.w3.org/2000/svg" xmlns:xlink="http://www.w3.org/1999/xlink" width="32" height="32" viewBox="0 0 32 32">
<path fill="#e95c2e" d="M19.004 5.058c0-0.55-0.45-1-1-1h-4.004c-0.55 0-1 0.45-1 1v7c0 0.55-0.45 1-1 1h-7c-0.55 0-1 0.45-1 1v4c0 0.55 0.45 1 1 1h7c0.55 0 1 0.45 1 1v7c0 0.55 0.45 1 1 1h4.004c0.55 0 1-0.45 1-1v-7c0-0.55 0.45-1 1-1h7c0.55 0 1-0.45 1-1v-4c0-0.55-0.45-1-1-1h-7c-0.55 0-1-0.45-1-1v-7z"></path>
</svg>
