<?xml version="1.0" encoding="utf-8"?>
<!-- Generated by IcoMoon.io -->
<!DOCTYPE svg PUBLIC "-//W3C//DTD SVG 1.1//EN" "http://www.w3.org/Graphics/SVG/1.1/DTD/svg11.dtd">
<svg version="1.1" xmlns="http://www.w3.org/2000/svg" xmlns:xlink="http://www.w3.org/1999/xlink" width="32" height="32" viewBox="0 0 32 32">
<path fill="#e95c2e" d="M3.972 0.038v4.982c0 0.552 0.45 1 1 1h22.064c0.55 0 1-0.448 1-1v-4.982h-24.064zM16.684 12.668c-0.386-0.388-1.026-0.388-1.416 0l-6.588 6.586c-0.388 0.39-0.258 0.706 0.292 0.706h2c0.55 0 1 0.454 1 1v8.040c0 0.55 0.45 1 1 1h6.004c0.542 0 1-0.45 1-1v-8.040c0-0.548 0.45-1 1-1h2c0.542 0 0.68-0.316 0.29-0.708l-6.582-6.584z"></path>
</svg>
