<?xml version="1.0" encoding="utf-8"?>
<!-- Generated by IcoMoon.io -->
<!DOCTYPE svg PUBLIC "-//W3C//DTD SVG 1.1//EN" "http://www.w3.org/Graphics/SVG/1.1/DTD/svg11.dtd">
<svg version="1.1" xmlns="http://www.w3.org/2000/svg" xmlns:xlink="http://www.w3.org/1999/xlink" width="32" height="32" viewBox="0 0 32 32">
<path fill="#e95c2e" d="M27.020 4c-0.55 0-1 0.448-1 1v22.058c0 0.55 0.45 1 1 1h4.984v-24.058h-4.984zM12.724 8.764c-0.388-0.388-0.706-0.256-0.706 0.294v2c0 0.55-0.45 1-1 1h-8c-0.55 0-1 0.45-1 1v6c0 0.542 0.45 1 1 1h8c0.55 0 1 0.45 1 1v2c0 0.542 0.318 0.68 0.708 0.292l6.59-6.586c0.386-0.388 0.386-1.026 0-1.416l-6.592-6.584z"></path>
</svg>
