<?xml version="1.0" encoding="utf-8"?>
<!-- Generated by IcoMoon.io -->
<!DOCTYPE svg PUBLIC "-//W3C//DTD SVG 1.1//EN" "http://www.w3.org/Graphics/SVG/1.1/DTD/svg11.dtd">
<svg version="1.1" xmlns="http://www.w3.org/2000/svg" xmlns:xlink="http://www.w3.org/1999/xlink" width="32" height="32" viewBox="0 0 32 32">
<path fill="#e95c2e" d="M5 4h-4.982v24.058h4.982c0.552 0 1-0.45 1-1v-22.058c0-0.552-0.448-1-1-1zM29.004 12.058h-8c-0.55 0-1-0.45-1-1v-2c0-0.55-0.32-0.682-0.708-0.292l-6.588 6.584c-0.388 0.388-0.388 1.026 0 1.416l6.588 6.586c0.376 0.386 0.708 0.258 0.708-0.292v-2c0-0.542 0.454-1 1-1h8c0.55 0 1-0.45 1-1v-6c0-0.552-0.45-1.002-1-1.002z"></path>
</svg>
