<?xml version="1.0" encoding="utf-8"?>
<!-- Generated by IcoMoon.io -->
<!DOCTYPE svg PUBLIC "-//W3C//DTD SVG 1.1//EN" "http://www.w3.org/Graphics/SVG/1.1/DTD/svg11.dtd">
<svg version="1.1" xmlns="http://www.w3.org/2000/svg" xmlns:xlink="http://www.w3.org/1999/xlink" width="32" height="32" viewBox="0 0 32 32">
<path fill="#e95c2e" d="M27.036 24.020h-22.064c-0.55 0-1 0.446-1 1v4.98h24.064v-4.98c0-0.556-0.45-1-1-1zM15.268 17.372c0.388 0.386 1.030 0.386 1.416 0l6.586-6.584c0.386-0.388 0.258-0.708-0.292-0.708h-2c-0.55 0-1-0.45-1-1v-8.040c0-0.55-0.452-1-1-1h-6.004c-0.55 0-1 0.45-1 1v8.038c0 0.55-0.45 1-1 1h-2c-0.55 0-0.682 0.318-0.292 0.708l6.586 6.586z"></path>
</svg>
