<?xml version="1.0" encoding="utf-8"?>
<!-- Generated by IcoMoon.io -->
<!DOCTYPE svg PUBLIC "-//W3C//DTD SVG 1.1//EN" "http://www.w3.org/Graphics/SVG/1.1/DTD/svg11.dtd">
<svg version="1.1" xmlns="http://www.w3.org/2000/svg" xmlns:xlink="http://www.w3.org/1999/xlink" width="32" height="32" viewBox="0 0 32 32">
<path fill="#e95c2e" d="M22.004 22v5.058c0 0.55-0.45 0.942-1 0.942h-6c-1.654 0-2.224-1.508-1.208-2.632l1.62-1.45c1.018-1.124 1.026-2.922-0.194-4.020-0.766-0.688-2.054-1.456-4.222-1.456s-3.454 0.772-4.218 1.462c-1.218 1.098-1.212 2.9-0.194 4.030l1.616 1.434c1.018 1.124 0.446 2.632-1.204 2.632h-6c-0.552 0-1-0.386-1-0.942v-18.058c0-0.552 0.448-1 1-1h6c1.65 0 2.222-1.536 1.204-2.664l-1.616-1.46c-1.020-1.126-1.026-2.93 0.194-4.028 0.764-0.688 2.050-1.462 4.218-1.462s3.456 0.774 4.222 1.462c1.216 1.096 1.212 2.9 0.194 4.028l-1.62 1.46c-1.018 1.128-0.446 2.664 1.206 2.664h6c0.548 0 1 0.448 1 1v5c0 1.65 1.284 2.222 2.466 1.204l1.542-1.616c1.198-1.020 3.094-1.026 4.254 0.194 0.728 0.766 1.544 2.050 1.544 4.218s-0.816 3.454-1.542 4.218c-1.16 1.208-3.058 1.208-4.254 0.194l-1.54-1.616c-1.186-1.018-2.468-0.446-2.468 1.204z"></path>
</svg>
