<?xml version="1.0" encoding="utf-8"?>
<!-- Generated by IcoMoon.io -->
<!DOCTYPE svg PUBLIC "-//W3C//DTD SVG 1.1//EN" "http://www.w3.org/Graphics/SVG/1.1/DTD/svg11.dtd">
<svg version="1.1" xmlns="http://www.w3.org/2000/svg" xmlns:xlink="http://www.w3.org/1999/xlink" width="32" height="32" viewBox="0 0 32 32">
<path fill="#e95c2e" d="M16.004 2c-7.736 0-14.004 6.268-14.004 14s6.268 14 14.004 14c7.73 0 14-6.268 14-14s-6.27-14-14-14zM22.004 12c0 1.102-0.32 2.17-0.954 3.172l-0.316 0.44c-0.14 0.186-0.378 0.482-0.722 0.786-0.336 0.296-0.7 0.598-1.090 0.894l-0.406 0.378-0.282 0.258-0.192 0.34-0.042 0.47v1.26h-4.002v-1.408c0.052-0.792 0.156-1.46 0.408-1.998 0.25-0.538 0.542-0.996 0.878-1.376l0.45-0.42-0.020-0.030 0.352-0.28 0.274-0.256c0.372-0.278 0.714-0.554 1.032-0.834l0.296-0.36c0.196-0.304 0.336-0.646 0.336-1.036 0-1.104-0.894-2-2-2s-2.004 0.896-2.004 2h-4c0-3.314 2.686-6 6.004-6 3.312 0 6 2.686 6 6zM18.504 25.238c0 0.688-0.562 1.25-1.25 1.25h-2.5c-0.69 0-1.252-0.562-1.252-1.25v-2.476c0-0.688 0.562-1.25 1.252-1.25h2.5c0.688 0 1.25 0.562 1.25 1.25v2.476z"></path>
</svg>
