<?xml version="1.0" encoding="utf-8"?>
<!-- Generated by IcoMoon.io -->
<!DOCTYPE svg PUBLIC "-//W3C//DTD SVG 1.1//EN" "http://www.w3.org/Graphics/SVG/1.1/DTD/svg11.dtd">
<svg version="1.1" xmlns="http://www.w3.org/2000/svg" xmlns:xlink="http://www.w3.org/1999/xlink" width="32" height="32" viewBox="0 0 32 32">
<path fill="#e95c2e" d="M24.472 30c-0.292 0-0.566-0.082-0.812-0.248l-7.656-5.166-7.66 5.166c-0.246 0.166-0.53 0.248-0.812 0.248-0.29 0-0.578-0.086-0.826-0.258-0.492-0.342-0.724-0.95-0.584-1.532l2.244-9.46-6.878-6.214c-0.45-0.4-0.606-1.038-0.392-1.6 0.212-0.564 0.752-0.936 1.356-0.936h8.518l3.686-9.084c0.218-0.554 0.754-0.916 1.348-0.916s1.128 0.362 1.348 0.916l3.68 9.084h8.524c0.612 0 1.14 0.372 1.366 0.936 0.208 0.562 0.048 1.202-0.392 1.6l-6.878 6.214 2.242 9.46c0.13 0.582-0.094 1.19-0.586 1.532-0.258 0.172-0.546 0.258-0.836 0.258z"></path>
</svg>
