<?xml version="1.0" encoding="utf-8"?>
<!-- Generated by IcoMoon.io -->
<!DOCTYPE svg PUBLIC "-//W3C//DTD SVG 1.1//EN" "http://www.w3.org/Graphics/SVG/1.1/DTD/svg11.dtd">
<svg version="1.1" xmlns="http://www.w3.org/2000/svg" xmlns:xlink="http://www.w3.org/1999/xlink" width="32" height="32" viewBox="0 0 32 32">
<path fill="#e95c2e" d="M30.91 10.936c-0.214-0.564-0.754-0.936-1.36-0.936h-8.52l-3.682-9.084c-0.216-0.554-0.75-0.916-1.344-0.916s-1.13 0.362-1.348 0.916l-3.686 9.084h-8.518c-0.602 0-1.142 0.372-1.356 0.936-0.216 0.564-0.058 1.2 0.392 1.6l6.876 6.214-2.244 9.46c-0.14 0.582 0.092 1.19 0.584 1.532 0.248 0.172 0.538 0.258 0.826 0.258 0.284 0 0.566-0.082 0.812-0.248l7.662-5.166 7.656 5.166c0.246 0.166 0.528 0.248 0.812 0.248 0.29 0 0.578-0.086 0.824-0.258 0.492-0.342 0.712-0.95 0.586-1.532l-2.242-9.46 6.876-6.214c0.448-0.4 0.608-1.038 0.394-1.6zM20.868 17.886l1.964 8.292-6.828-4.608-6.832 4.608 1.964-8.292-5.96-5.386h7.478l3.35-8.256 3.344 8.256h7.48l-5.96 5.386z"></path>
</svg>
