<?xml version="1.0" encoding="utf-8"?>
<!-- Generated by IcoMoon.io -->
<!DOCTYPE svg PUBLIC "-//W3C//DTD SVG 1.1//EN" "http://www.w3.org/Graphics/SVG/1.1/DTD/svg11.dtd">
<svg version="1.1" xmlns="http://www.w3.org/2000/svg" xmlns:xlink="http://www.w3.org/1999/xlink" width="32" height="32" viewBox="0 0 32 32">
<path fill="#e95c2e" d="M28.832 23.172l-0.020-0.016v-0.002l-11.312-11.312c0.3-0.898 0.504-1.842 0.504-2.842 0-4.97-4.032-9-9.004-9-1.010 0-1.962 0.204-2.868 0.51l4.862 4.862-1.176 4.392-4.392 1.176-4.89-4.89c-0.324 0.928-0.536 1.912-0.536 2.95 0 4.972 4.028 9 9 9 1 0 1.944-0.204 2.842-0.502l11.334 11.33c1.562 1.562 4.094 1.562 5.656 0s1.562-4.094 0-5.656z"></path>
</svg>
